<svg width="33" height="30" viewBox="0 0 33 30" fill="none" xmlns="http://www.w3.org/2000/svg">
<g filter="url(#filter0_d_14_156)">
<path fill-rule="evenodd" clip-rule="evenodd" d="M4 11C4 10.6022 4.15804 10.2206 4.43934 9.93934C4.72064 9.65804 5.10218 9.5 5.5 9.5H22.879L16.438 3.062C16.1563 2.78034 15.9981 2.39833 15.9981 2C15.9981 1.60168 16.1563 1.21966 16.438 0.938003C16.7197 0.656343 17.1017 0.498108 17.5 0.498108C17.8983 0.498108 18.2803 0.656343 18.562 0.938003L27.562 9.938C27.7017 10.0773 27.8125 10.2429 27.8881 10.4251C27.9638 10.6073 28.0027 10.8027 28.0027 11C28.0027 11.1973 27.9638 11.3927 27.8881 11.5749C27.8125 11.7571 27.7017 11.9227 27.562 12.062L18.562 21.062C18.2803 21.3437 17.8983 21.5019 17.5 21.5019C17.1017 21.5019 16.7197 21.3437 16.438 21.062C16.1563 20.7803 15.9981 20.3983 15.9981 20C15.9981 19.6017 16.1563 19.2197 16.438 18.938L22.879 12.5H5.5C5.10218 12.5 4.72064 12.342 4.43934 12.0607C4.15804 11.7794 4 11.3978 4 11Z" fill="#4F4F4F"/>
</g>
<defs>
<filter id="filter0_d_14_156" x="0" y="0.498108" width="32.0027" height="29.0038" filterUnits="userSpaceOnUse" color-interpolation-filters="sRGB">
<feFlood flood-opacity="0" result="BackgroundImageFix"/>
<feColorMatrix in="SourceAlpha" type="matrix" values="0 0 0 0 0 0 0 0 0 0 0 0 0 0 0 0 0 0 127 0" result="hardAlpha"/>
<feOffset dy="4"/>
<feGaussianBlur stdDeviation="2"/>
<feComposite in2="hardAlpha" operator="out"/>
<feColorMatrix type="matrix" values="0 0 0 0 0 0 0 0 0 0 0 0 0 0 0 0 0 0 0.25 0"/>
<feBlend mode="normal" in2="BackgroundImageFix" result="effect1_dropShadow_14_156"/>
<feBlend mode="normal" in="SourceGraphic" in2="effect1_dropShadow_14_156" result="shape"/>
</filter>
</defs>
</svg>
