<svg width="64" height="62" viewBox="0 0 64 62" fill="none" xmlns="http://www.w3.org/2000/svg">
<g filter="url(#filter0_d_11_56)">
<path fill-rule="evenodd" clip-rule="evenodd" d="M32 0.666687C15.8 0.666687 2.66669 13.8 2.66669 30C2.66669 46.2 15.8 59.3334 32 59.3334C48.2 59.3334 61.3334 46.2 61.3334 30C61.3334 13.8 48.2 0.666687 32 0.666687ZM34.6667 40.6667C34.6667 41.3739 34.3857 42.0522 33.8856 42.5523C33.3855 43.0524 32.7073 43.3334 32 43.3334C31.2928 43.3334 30.6145 43.0524 30.1144 42.5523C29.6143 42.0522 29.3334 41.3739 29.3334 40.6667V32.6667H21.3334C20.6261 32.6667 19.9478 32.3857 19.4477 31.8856C18.9476 31.3855 18.6667 30.7073 18.6667 30C18.6667 29.2928 18.9476 28.6145 19.4477 28.1144C19.9478 27.6143 20.6261 27.3334 21.3334 27.3334H29.3334V19.3334C29.3334 18.6261 29.6143 17.9478 30.1144 17.4477C30.6145 16.9476 31.2928 16.6667 32 16.6667C32.7073 16.6667 33.3855 16.9476 33.8856 17.4477C34.3857 17.9478 34.6667 18.6261 34.6667 19.3334V27.3334H42.6667C43.3739 27.3334 44.0522 27.6143 44.5523 28.1144C45.0524 28.6145 45.3334 29.2928 45.3334 30C45.3334 30.7073 45.0524 31.3855 44.5523 31.8856C44.0522 32.3857 43.3739 32.6667 42.6667 32.6667H34.6667V40.6667Z" fill="url(#paint0_linear_11_56)"/>
</g>
<defs>
<filter id="filter0_d_11_56" x="-1.33331" y="0.666687" width="66.6667" height="66.6667" filterUnits="userSpaceOnUse" color-interpolation-filters="sRGB">
<feFlood flood-opacity="0" result="BackgroundImageFix"/>
<feColorMatrix in="SourceAlpha" type="matrix" values="0 0 0 0 0 0 0 0 0 0 0 0 0 0 0 0 0 0 127 0" result="hardAlpha"/>
<feOffset dy="4"/>
<feGaussianBlur stdDeviation="2"/>
<feComposite in2="hardAlpha" operator="out"/>
<feColorMatrix type="matrix" values="0 0 0 0 0 0 0 0 0 0 0 0 0 0 0 0 0 0 0.25 0"/>
<feBlend mode="normal" in2="BackgroundImageFix" result="effect1_dropShadow_11_56"/>
<feBlend mode="normal" in="SourceGraphic" in2="effect1_dropShadow_11_56" result="shape"/>
</filter>
<linearGradient id="paint0_linear_11_56" x1="2.66669" y1="30" x2="61.3334" y2="30" gradientUnits="userSpaceOnUse">
<stop stop-color="#2AF598"/>
<stop offset="1" stop-color="#009EFD"/>
</linearGradient>
</defs>
</svg>
